<svg width="216" height="122" viewBox="0 0 216 122" fill="none" xmlns="http://www.w3.org/2000/svg">
<g clip-path="url(#clip0)">
<path d="M64.7996 30.2L62.8996 32.8L59.8996 31.1L59.5996 30.1L57.1996 29.6L57.7996 27.9L59.2996 28.3L61.6996 25.5L61.0996 25L59.8996 26.5H59.3996L58.7996 25.3L59.5996 24.5L59.4996 24.2L58.6996 24.5L58.3996 24.1L58.6996 23.2L58.0996 22.9L57.6996 24.5L57.0996 24.8L57.1996 25.9L55.3996 27.2L54.4996 26.8L54.1996 27.2L56.0996 30L55.4996 30.5L54.5996 30.7L53.9996 31.6L51.0996 29.9L46.7996 34.2L47.0996 36.5L51.0996 39.2L52.0996 42.2L52.8996 41.9L52.7996 38.5L55.7996 34.5L54.7996 31.9L55.1996 30.8L56.3996 30.7L60.7996 33.1L60.9996 35.4H61.5996L62.5996 34H63.3996L66.7996 40.8L68.1996 47.5L63.7996 46.9L63.3996 45.1L61.2996 45.7L62.7996 48.9L53.7996 53.5L48.7996 59.5L48.8996 63.1L47.2996 63.3L45.3996 59.9L38.0996 62.2L37.4996 66.6L39.7996 67.5L42.2996 65.2L44.0996 66.8L44.3996 69.8L46.7996 73.2L59.3996 73.5L69.3996 81.2L76.0996 83.9L76.7996 87.2L73.7996 95.2L69.3996 97.6L59.8996 112.5L60.0996 118.5H62.0996L62.3996 120.5L58.3996 121.2L54.7996 115.5L53.7996 92.9L47.0996 82.5L49.0996 77.2L46.7996 75.2L43.8996 73.9L42.8996 72.6L38.9996 70.4L36.5996 70.6L32.1996 67.4L27.9996 59.6L27.4996 59.4L30.9996 67.1L30.0996 66.9L22.7996 54.2L24.7996 41.9L19.7996 29.5L13.6996 26.9L10.8996 30.2L9.69961 30.7L3.59961 32.9L3.09961 32.5L8.89961 29.7L9.49961 28.6L8.39961 28.4L7.09961 24.2L11.0996 15.9L13.3996 15.5L14.0996 12.2L22.3996 11.5L29.8996 15.8L36.0996 17.5L43.0996 22.2L48.0996 21.9L50.9996 14.1L55.7996 15.3L52.9996 18.4L53.2996 22.1L54.1996 23.3L55.1996 21.8L54.0996 20.4L54.6996 17.6L57.5996 15.8L58.2996 16.1L63.0996 17.9L63.1996 19.8L65.5996 23.9L65.6996 25.2L66.7996 27.6L65.1996 29.6L64.2996 28.9L63.9996 29.4L64.7996 30.2Z" fill="#102657"/>
<path d="M0.1 34.1L0 34.5L1.8 33.8L1.7 33.3L0.1 34.1Z" fill="#102657"/>
<path d="M57.8002 69L57.4002 67.8L55.2002 67.5L51.9002 66.5L46.9002 64.6L44.7002 65.1L45.6002 66.1L49.0002 66.5L53.7002 68.8L57.8002 69Z" fill="#102657"/>
<path d="M48.7998 68.3L49.9998 69.1L50.8998 68.9L49.9998 67.7L48.7998 67.6V68.3Z" fill="#102657"/>
<path d="M63.5004 116.6L63.4004 117.7L65.0004 118L65.5004 117.4L65.1004 116.5L63.5004 116.6Z" fill="#102657"/>
<path d="M49.3004 14.4L48.3004 13.3L46.5004 14.4H45.4004L44.0004 13.3L39.6004 15.7L39.4004 16.8L41.6004 16.9L42.1004 17.6L40.2004 17.9C40.2004 17.9 39.9004 18.9 39.9004 19.1C39.9004 19.3 42.3004 21 42.3004 21L47.2004 21.4L48.3004 20.2C48.3004 20.2 47.5004 19 47.5004 18.7C47.5004 18.4 47.9004 16.3 47.9004 16.3L49.3004 14.4Z" fill="#102657"/>
<path d="M43.6 13L42.6 11.2L40.6 10.9L40.3 11.8L38 14.2L39.1 15.4L43.6 13Z" fill="#102657"/>
<path d="M46.5996 11.8L51.7996 12L52.0996 10.4L51.2996 9.70002L51.4996 8.60003L50.3996 8.40002L50.2996 10.5L49.1996 10.6L48.5996 8.40002L45.5996 10.1L46.5996 11.8Z" fill="#102657"/>
<path d="M44.4004 8.89997L44.7004 9.49998L45.5004 8.59998L44.4004 8.89997Z" fill="#102657"/>
<path d="M46.6004 7.59998L47.3004 6.09998L43.4004 7.39998L44.0004 8.49998L46.6004 7.59998Z" fill="#102657"/>
<path d="M51.5996 6.4C51.4996 6.2 49.7996 6 49.7996 6L49.5996 6.9L50.7996 7.4L51.5996 6.4Z" fill="#102657"/>
<path d="M52.5002 4.90002H50.7002V5.40002L52.0002 5.90002L52.5002 4.90002Z" fill="#102657"/>
<path d="M54.5996 13L55.0996 11.2L54.5996 9.59998L52.5996 9.79998L52.7996 12.2L54.5996 13Z" fill="#102657"/>
<path d="M55.4998 13.9L55.6998 12.6L55.2998 12.4L54.7998 13.4L55.4998 13.9Z" fill="#102657"/>
<path d="M64.6001 4.6L67.2001 4.9L64.5001 5.2L63.9001 6L64.2001 7.6L62.1001 8.2L61.4001 9.9L57.7001 10.6L56.1001 9.7C56.1001 9.7 55.5001 10.6 55.6001 10.9C55.7001 11.2 56.6001 11.6 56.6001 11.6L56.1001 14.2L58.7001 15.3L61.5001 15.5L62.3001 14.1L61.4001 13.1L58.2001 12.6L58.3001 12L60.5001 12.3L62.6001 13L64.4001 12.6L64.3001 11.4L65.6001 10.3L66.4001 10.4L66.7001 9.2L67.5001 8.7L67.9001 7.9L73.5001 4.7L75.7001 3L75.6001 1.9L71.2001 0.2L70.6001 0.6L70.3001 0L68.5001 0.2L68.1001 0.8L67.8001 0.5L66.3001 0.9L66.0001 1.4L65.6001 1L63.5001 1.8L63.7001 3.4L64.6001 4.6Z" fill="#102657"/>
<path d="M59.7 8.09998L60.6 8.59998L61.6 7.59998L63.4 7.09998L63.5 5.79998L64 4.99998L62.8 4.09998L63 2.99998L62.6 2.09998L60.7 3.59998C60.7 3.59998 59.8 5.39998 59.8 5.49998C59.8 5.59998 60 6.39998 60 6.39998L59.5 6.89998L59.7 8.09998Z" fill="#102657"/>
<path d="M58.4998 7.09999L57.5998 6.79999L57.2998 8.69999L57.9998 8.89999L58.4998 7.09999Z" fill="#102657"/>
<path d="M58.5 9.30001L57.5 9.20001V9.60001L58.2 9.80001L58.5 9.30001Z" fill="#102657"/>
<path d="M54.9996 7.79999L56.2996 8.09999L57.0996 5.89999L56.7996 4.79999H55.5996L55.2996 5.89999H54.2996L54.0996 6.39999L55.0996 6.89999L54.9996 7.79999Z" fill="#102657"/>
<path d="M53.6004 8.4V7.6L52.9004 7.5L53.0004 8.4H53.6004Z" fill="#102657"/>
<path d="M88.4002 22.7L90.7002 18.8V13.9L94.6002 7.80001L93.4002 6.70001L90.7002 6.90001L89.9002 5.80001L91.3002 4.90001L87.8002 2.70001L81.2002 3.90001L80.4002 5.10001L79.5002 4.30001L77.3002 4.00001L71.5002 7.20001L71.4002 8.20001L67.2002 10.5L67.9002 14.6L71.8002 15.3L71.1002 26.3L72.6002 34.3L75.2002 36.1L77.6002 30.8L80.3002 29.9L82.2002 28.4L88.4002 24.6V22.7Z" fill="#102657"/>
<path d="M91.9996 31.1L91.2996 29.5L88.2996 29.8L87.7996 28.9L86.5996 29.5L86.0996 31.7L89.2996 33.2L91.9996 31.1Z" fill="#102657"/>
<path d="M106.8 16.2L107.1 14.7L107.7 13.6L108.6 15.2L109.5 14.3L106.2 10.4L103.6 12L105.7 16.1L106.8 16.2Z" fill="#102657"/>
<path d="M110.4 10.5L107.7 9.79999L106.7 10.3L109 12.2L110.4 10.5Z" fill="#102657"/>
<path d="M119.7 8.09999L119.2 7.29999L118.1 7.69999L117.4 8.39999L118.4 8.99999L119.7 8.09999Z" fill="#102657"/>
<path d="M124.7 6.2L124 5.5L122.4 6.3L121.4 6.1L120.3 7L122.1 8.4L124.7 6.2Z" fill="#102657"/>
<path d="M141.1 6.79999L140.5 4.59999L136.2 2.29999L135.8 4.49999L138.5 5.99999L141.1 6.79999Z" fill="#102657"/>
<path d="M142.2 8.00001L142.9 7.00001L143.5 5.80001L142.1 4.70001L141.7 5.00001L141.8 6.80001L142.2 8.00001Z" fill="#102657"/>
<path d="M139.5 115.8L140.5 116.5L141.1 115.5L139.8 114.8L139.5 115.8Z" fill="#102657"/>
<path d="M127.3 90.9L127.2 92.8L126.6 93.8V96.2L129 97L131.8 89.1L130.4 87.8L127.3 90.9Z" fill="#102657"/>
<path d="M182.9 54L181 56.6L182.1 58.4L182.6 58L182.7 56.6L187.8 54V50.9L186.6 47.8L187.7 47.6L188.6 46.9L188.1 45.4L186.4 45L185.9 41.2L183.1 35.2L182.8 35.8L184.9 41.9L185.5 45.6L185.1 47.5L185.6 48.8V52.4L182.9 54Z" fill="#102657"/>
<path d="M124 25.6L124.1 25L123.4 24.9L123.3 25.6H124Z" fill="#102657"/>
<path d="M127.5 23.6L128.2 23L126.3 21.4L126.8 18.3L130 13.8L128.9 12.8L127.7 14L126.6 14.4L124.8 16.7L124.9 21.9L127.5 23.6Z" fill="#102657"/>
<path d="M188 8.50002L184.6 9.40002L185.6 10.4L185.2 11L183.3 10.5L179.4 11.7L178 10.3L175.5 11.1L174.2 11.2L171.7 9.90002L166.2 10.8L167.2 12.6L164 13.8L164.2 15L163.4 15.2L161.2 12.4L157.8 11.9L157.6 12.9L155.3 13L151.8 12.9L151 14.2L150.5 14.4L150.9 9.70002L146.9 8.90002L144.5 7.40002L143.5 8.70002L143.9 10.5L142.1 11.3L139.2 14.9L139.7 16.5L136.9 18L140.1 20.2L139.8 20.9L136.6 18.7L135.7 20.4L137.4 24.4L139.2 24.5L139.7 25.3L139.6 25.7L139 25L137.9 24.9L137.2 27.9L136.4 27.6L136.9 25.6L134.4 19.7L133.4 19.5L133 18.8L132.3 18.7L132.1 22.3L132.6 24.1L134.4 25.3L133.9 25.7L131.4 24.3L129 24.1L128.3 24.5L129.9 25.4L128.9 25.8L126.2 26.2L123 28.3L122.6 26.7L122 26.9L122.3 28.5L121.5 29.3L120.3 31.1L119.1 31L118.8 31.4L119.5 32.1L119.2 32.6L117.5 31.5L117.3 29.7L119.3 29.8L120.5 28.2L114.6 25.2L112.1 24.5L107.5 27L105.7 31.4L101.8 34.9L102.3 38.2L103.6 38.9L105.2 37.7L106 40.5L107.1 40.9L108.8 40L108.7 39.5L108.8 38.2L109.6 37.9L109.7 36.7L108.9 36.1L108.7 34.4L110.1 32.5L110.9 30.5L112.2 30.9L110.5 33.6L110.6 35.8L111.4 36.4L114.7 36.2L114.5 37.2L111.8 37.4L111.7 38.1L112.4 38.6L112.1 39L111.4 38.9L110.7 40.4L111.7 41.6L111.3 41.9L109.5 41.4L107 42.1L105.5 42.3L104.8 42.1L105 41.5L105.2 40.3L104.9 39.8L104.1 40.6L104 42L102.1 42.7L99.7004 45.3L97.8004 46L96.3004 46.3V46.8L97.8004 47.9L98.3004 50.5L94.3004 50.4L94.0004 52.7L93.7004 54.2L93.9004 55.1L95.2004 56.1L95.6004 56.2L95.9004 55.9L98.0004 55.8L99.1004 54.9L99.4004 53.5L100.8 52.4L101.6 50.9L103.1 51.3L104.4 50L106.5 52.1L108.5 53.2L108.9 54.5L106.9 54.7L106.8 55.1L108.5 55.8L108.6 55.2L109.6 54.4L109.3 53L110.1 53.7L110.3 53.4L109.6 52.6L106.3 50L106.5 49.2L110.5 52.3L111.2 54.7L113.6 56.9L115 57.7L115.5 57.3L113.6 56.1L113.8 55.3L113 53.7L114.2 53.4L115.8 56.3L120.6 56.8L119.6 59.6L111.5 58.4L110.6 60L105.6 57.8L105.1 55.5L95.2004 56.7L90.0004 63.8L88.4004 71L93.7004 77.8L101.4 76.3L104.8 77.7L104.3 80.2L107.6 86.5L105.9 90.3L110.6 103.2L115.4 103.3L121.3 96.9L121.6 94.3L125.3 90.5V84.8L132.4 75.1L132.1 73L127.1 73.2L120.4 62.4L121.7 62L126.5 69.8L127.9 72.1L133.9 69.9L137.9 65.9L135.3 64.4L134.4 63.3L133.2 64.3L130 61.1L130.5 60.5L133.5 62.9L135.1 62.4L135.7 63.8L141.8 64.3L144.6 67.2L146 67.4L145.9 68.9L149.5 75.4L150.6 75.3L151.5 77.2L152.5 76.6L151.5 71L157.7 66.1L159.5 68.5L160 70L161.5 70.2L162.5 71.4L162.9 75L163.8 75.5L164.3 76.9L166.9 79.5V78L164.7 74.8L164.6 72.6L168 75L170.8 72.5L168 68.3L168.8 66.7L169.6 67.2L169.5 68.1L170.7 68.5L171.3 66.9L175.3 64.8L177.3 59.8L175.1 55.6L176.2 53.6L173.7 53.1V52L176.7 51.9L179.2 55.5L180.8 54.9L179.7 50.8L182.1 48L184.7 41.6L182.3 35.2L179.5 34.4L179.9 29.6L183.7 27.8L185.3 28.3L187.1 27.5L186.6 26.3L186.8 24.1L189.8 24.7L188.8 28.9L192 36.9L191.6 37.8L192.5 38.8L193.7 36.7L193.5 33.8L194 32.6L193.6 31.2L194 30.3L192.8 25.7L193.7 24.5L195.5 24.7V24L197.9 20.1L195.7 17L196 14.4L199.2 13.8L197.9 9.60002L188 8.50002ZM124 52H117.7L115.9 51.2L117.6 48.1L118.5 48.4L120 49.7L120.9 49.3L120.7 48.3L121.5 48.2L121.8 49.5L124.3 51.1L124 52ZM129.6 54.5L130.1 52.7L127.5 49.2L130 47.4L130.5 47.8L129.3 49.1L130.9 51.2L131.3 52.5L132.2 54.9L129.6 54.5Z" fill="#102657"/>
<path d="M96.6004 41.6L97.1004 42.3L96.3004 42.8L96.0004 44.6L95.4004 45.1L95.7004 45.7L97.8004 45L99.5004 44.8L100.3 43.3L97.9004 40.2L98.0004 39L96.7004 37.5L95.5004 38.9L95.4004 39.8L96.3004 40.5L96.6004 41.6Z" fill="#102657"/>
<path d="M93.2002 43.9L93.5002 44.5L95.6002 43.8V42.2L96.1002 41.2L95.1002 40.7L93.4002 42.1L93.2002 43.9Z" fill="#102657"/>
<path d="M104 52.2L104.6 51.9V51.1L103.9 51.4L104 52.2Z" fill="#102657"/>
<path d="M104.3 54.2L104.9 54.3L104.7 52.3L104 52.8L104.3 54.2Z" fill="#102657"/>
<path d="M165.2 8.19998L164.5 7.59998L164.2 7.69998L164.8 8.69998L165.6 9.89998L167.4 9.29998L166.2 8.29998L165.2 8.19998Z" fill="#102657"/>
<path d="M164.1 7.00001L165.2 6.80001L165.3 5.90001L164.9 4.80001L160.9 4.70001L160.4 6.40001L163.3 7.80001L164.1 7.00001Z" fill="#102657"/>
<path d="M166.6 5.30001L167 5.80001L168.1 5.60001L168.2 4.90001L167.2 4.20001L165.7 4.50001V4.90001L166.6 5.30001Z" fill="#102657"/>
<path d="M176.2 63.9L176.7 65.5L177.3 65.1L177.4 62.9L176.9 62.7L176.2 63.9Z" fill="#102657"/>
<path d="M176 74.5L176.9 73.4L176.4 73L175.5 74.3L176 74.5Z" fill="#102657"/>
<path d="M178.4 70.1L178.2 67.6L176.9 67.9L176.8 70L177.9 72.5L178.7 74L180.6 73.3L180.4 72.1L178.4 70.1Z" fill="#102657"/>
<path d="M178.7 74.5L178.6 75.5L179.9 75.3L180.7 76.6L181.5 76.2L180.8 74L178.7 74.5Z" fill="#102657"/>
<path d="M167.3 80.9L162.5 77H161.1L163.9 80.4L167.1 83.8L168.4 83.9L168.6 82.7L167.3 80.9Z" fill="#102657"/>
<path d="M177.8 86.7L178.8 86.3V85.6L173.9 85.1L171.1 84.1L169.8 84.4L168.9 84.3L168.6 84.9L176.2 86.7H177.8Z" fill="#102657"/>
<path d="M177.7 87H176.9V87.3H177.7V87Z" fill="#102657"/>
<path d="M180.9 86.5L181.5 86.3L181.2 86L180.4 86.1L179.3 86.8L179.5 87.2L180.9 86.5Z" fill="#102657"/>
<path d="M171.9 78.6L170.5 78.9L169.9 79.7L172 82.5L172.9 82.6L173.9 83L174.9 82.7L175 81.7L176 79.9V78L176.4 76.8L175.2 75.9L171.9 78.6Z" fill="#102657"/>
<path d="M177.2 80.1L176.3 82.2L176.8 83.8L177.6 83.9L177.9 83.2L179 84L179.3 83.4L178.4 82L179.4 81.2L179 80.7L177.8 81.1V80.5L180.4 80L180.2 79.5L177.2 80.1Z" fill="#102657"/>
<path d="M191.6 87.6L190.7 87.9L189.5 91.8L187.7 90.3L188.1 88.5L184.8 87.5L182.7 89.6L181.3 89.4L177.8 91.5L176.8 93L172.2 95L172.1 101.8L171.7 104.4L173.2 105.5L182.3 103L183.5 103.6L185.2 106.6L186.3 106.9L186.4 107.8L188.5 109.7L190.9 110.2L193.4 108.8L197.6 98.5L194.5 93.4L191.6 87.6Z" fill="#102657"/>
<path d="M188.7 111.5L188.6 113.8L189.4 114.5L190.4 114.1L191.1 112.1H189.9L188.7 111.5Z" fill="#102657"/>
<path d="M201 118L200.9 119.7L201.9 120L207.4 114.5L206.8 113.4L201 118Z" fill="#102657"/>
<path d="M210.2 110.6L208.6 106.7L208 107L208.6 111L207.4 111.8L207.9 112.7L207.4 113.5L208.1 114.3L211.4 111.1L211.2 110.5L210.2 110.6Z" fill="#102657"/>
<path d="M180.7 81.7L180.9 81.3H179.9V81.6L180.7 81.7Z" fill="#102657"/>
<path d="M182.5 79.5L182 79L181.9 80L182.5 80.8V79.5Z" fill="#102657"/>
<path d="M181.9 82.5H180.9L181.1 82.9H182.2L181.9 82.5Z" fill="#102657"/>
<path d="M183.4 82.5L184.2 83L184.3 82.5L183.4 82L182.4 82.1L182.5 82.5H183.4Z" fill="#102657"/>
<path d="M186.6 83.9L186.1 84.1L186.5 84.9L186.6 83.9Z" fill="#102657"/>
<path d="M186.6 82L186.3 81L184.5 80.8L185.4 82.9L186.8 83L188.9 84.2L188.6 85.5L190.5 86L190.6 86.3L192.4 86.4L193.2 85.4L195.4 87.1L196.6 87.4L197 86.8L194.6 84.5L192.4 82.6L188.8 81.6L187.5 82.5L186.6 82Z" fill="#102657"/>
<path d="M196.9 83.7L195.8 83.8L195.9 84.3L197.4 84.5L198.8 83.4L198.4 82.9L196.9 83.7Z" fill="#102657"/>
<path d="M197.4 82L197.1 82.1L197.7 82.7L198 82.5L197.4 82Z" fill="#102657"/>
<path d="M199.6 84.3L200.3 84.6L200.5 84.3L199.8 83.8L199.6 84.3Z" fill="#102657"/>
<path d="M201.5 85L201 84.5L200.8 84.7L201.4 85.2L201.5 85Z" fill="#102657"/>
<path d="M203 86L202.4 85.6L202.3 85.8L202.6 86.1L203 86Z" fill="#102657"/>
<path d="M204.3 86.7L203.6 86.1L203.5 86.3L204.2 86.8L204.3 86.7Z" fill="#102657"/>
<path d="M203.7 86.8L203.4 86.5L203.2 86.7L203.4 86.9L203.7 86.8Z" fill="#102657"/>
<path d="M204.1 87.2L204.4 87.4L204.6 87.3L204.3 87.1L204.1 87.2Z" fill="#102657"/>
<path d="M207.1 96.3L206 95.2L205.9 95.5L206.9 96.8L207.1 96.3Z" fill="#102657"/>
<path d="M208.3 92.1L207.7 91.1L207.4 91.3L208.1 92.3L208.3 92.1Z" fill="#102657"/>
<path d="M208.7 92.9L208.6 92.7L208.4 92.8L208.5 93L208.7 92.9Z" fill="#102657"/>
<path d="M213.5 92.6L214.1 93L214.5 92.3L214.1 92.1L213.5 92.6Z" fill="#102657"/>
<path d="M214.4 91.3L214.5 91.8L215.4 91.9L215.6 91.3H214.4Z" fill="#102657"/>
<path d="M189.4 44.6L189.8 44.1L189.4 43.7L188.7 44.8L189 45.3L189.4 44.6Z" fill="#102657"/>
</g>
<defs>
<clipPath id="clip0">
<rect width="215.6" height="121.2" fill="255, 0, 0"/>
</clipPath>
</defs>
</svg>
